<svg xmlns="http://www.w3.org/2000/svg" viewBox="0 0 100 100" width="512" height="512" role="img" aria-label="DiamondAI">
  <title>DiamondAI mark</title>
  
  <polygon points="30,27 70,27 60,49 40,49" fill="#e9e9ec"></polygon>
  <polygon points="30,27 40,49 14,49" fill="#bcbcc0"></polygon>
  <polygon points="70,27 86,49 60,49" fill="#d4d4d7"></polygon>
  <polygon points="14,49 40,49 50,90" fill="#4d8bff"></polygon>
  <polygon points="40,49 60,49 50,90" fill="#dcdcdf"></polygon>
  <polygon points="60,49 86,49 50,90" fill="#ff4b51"></polygon>
  
  <g stroke="#6e6e73" stroke-width="1.1" stroke-linejoin="round" opacity="0.5" fill="none">
    <path d="M40,49 30,27 M60,49 70,27 M40,49 50,90 M60,49 50,90"></path>
  </g>
  
  <polygon points="30,27 70,27 86,49 50,90 14,49" fill="none" stroke="#5f5f64" stroke-width="2.4" stroke-linejoin="round"></polygon>
  <line x1="14" y1="49" x2="86" y2="49" stroke="#5f5f64" stroke-width="1.6" opacity="0.75"></line>
</svg>